<svg xmlns="http://www.w3.org/2000/svg" viewBox="0 0 64 64" fill="none">
<rect x="28.5" y="6" width="7" height="11" rx="2.2" fill="#cdd3da" transform="rotate(0 32 32)"></rect><rect x="28.5" y="6" width="7" height="11" rx="2.2" fill="#cdd3da" transform="rotate(45 32 32)"></rect><rect x="28.5" y="6" width="7" height="11" rx="2.2" fill="#cdd3da" transform="rotate(90 32 32)"></rect><rect x="28.5" y="6" width="7" height="11" rx="2.2" fill="#cdd3da" transform="rotate(135 32 32)"></rect><rect x="28.5" y="6" width="7" height="11" rx="2.2" fill="#cdd3da" transform="rotate(180 32 32)"></rect><rect x="28.5" y="6" width="7" height="11" rx="2.2" fill="#cdd3da" transform="rotate(225 32 32)"></rect><rect x="28.5" y="6" width="7" height="11" rx="2.2" fill="#cdd3da" transform="rotate(270 32 32)"></rect><rect x="28.5" y="6" width="7" height="11" rx="2.2" fill="#cdd3da" transform="rotate(315 32 32)"></rect>
  <circle cx="32" cy="32" r="15" fill="#cdd3da"></circle>
  <circle cx="32" cy="32" r="15" fill="#5f9a3b" opacity="0.18"></circle>
  <circle cx="32" cy="32" r="6.5" fill="#11160d"></circle>
  <path d="M24 27 A9 9 0 0 1 32 23" stroke="#fff" stroke-width="2" opacity="0.4" fill="none" stroke-linecap="round"></path>
</svg>