<svg xmlns="http://www.w3.org/2000/svg" viewBox="0 0 64 64" fill="none">
<path d="M47 13 C 26 16, 14 33, 14 51 C 14 51, 13 53, 17 52 C 35 48, 49 30, 50 16 C 50.2 13.6, 49 12.4, 47 13 Z" fill="#62c4e8"></path>
<path d="M47 13 C 36 15, 26 22, 20 33 L 31 32 C 38 24, 44 17, 49 14 C 49 13.4, 48 12.7, 47 13 Z" fill="#9bdcf2"></path>
<path d="M48.5 14.5 L15.5 51.5" stroke="#2f8fb8" stroke-width="2.4" stroke-linecap="round"></path>
<g stroke="#2f8fb8" stroke-width="1.5" stroke-linecap="round" opacity="0.7">
  <path d="M42 18 L31 23"></path><path d="M38 25 L26 31"></path><path d="M33 32 L21 39"></path><path d="M28 39 L18 46"></path>
</g>
<path d="M15.5 51.5 L12 56" stroke="#2f8fb8" stroke-width="2.4" stroke-linecap="round"></path>
</svg>